<svg width="77" height="66" viewBox="0 0 77 66" fill="none" xmlns="http://www.w3.org/2000/svg">
  <path d="M74.5181 49.4632L47.9927 5.47324C46.9201 3.79531 45.4423 2.41443 43.6957 1.4579C41.949 0.501376 39.9896 0 37.9981 0C36.0067 0 34.0473 0.501376 32.3006 1.4579C30.5539 2.41443 29.0761 3.79531 28.0035 5.47324L1.47811 49.4632C0.541085 51.0252 0.0317947 52.8063 0.00144102 54.6276C-0.0289127 56.4488 0.42074 58.2459 1.30519 59.8382C2.32775 61.6306 3.80785 63.1193 5.59422 64.1522C7.3806 65.1852 9.40919 65.7253 11.4727 65.7174H64.5235C66.5735 65.7393 68.5929 65.22 70.3781 64.2121C72.1632 63.2042 73.6509 61.7432 74.691 59.9766C75.6015 58.3677 76.0655 56.5447 76.0351 54.6964C76.0047 52.848 75.481 51.0413 74.5181 49.4632ZM68.6389 56.5528C68.2233 57.2673 67.6201 57.8544 66.8947 58.2507C66.1693 58.6469 65.3493 58.8371 64.5235 58.8007H11.4727C10.6469 58.8371 9.82693 58.6469 9.10151 58.2507C8.3761 57.8544 7.77292 57.2673 7.35728 56.5528C7.05374 56.0271 6.89395 55.4307 6.89395 54.8237C6.89395 54.2166 7.05374 53.6202 7.35728 53.0945L33.9173 9.06991C34.3945 8.43947 35.0114 7.92819 35.7194 7.57616C36.4274 7.22413 37.2074 7.04093 37.9981 7.04093C38.7888 7.04093 39.5688 7.22413 40.2768 7.57616C40.9848 7.92819 41.6017 8.43947 42.0789 9.06991L68.6044 53.0599C68.9196 53.5867 69.089 54.1878 69.0951 54.8017C69.1011 55.4155 68.9437 56.0199 68.6389 56.5528Z" fill="#FF7A19"/>
  <path d="M38 51.8837C39.9099 51.8837 41.4583 50.3354 41.4583 48.4254C41.4583 46.5154 39.9099 44.967 38 44.967C36.09 44.967 34.5416 46.5154 34.5416 48.4254C34.5416 50.3354 36.09 51.8837 38 51.8837Z" fill="#FF7A19"/>
  <path d="M38 20.7586C37.0828 20.7586 36.2031 21.123 35.5545 21.7715C34.906 22.4201 34.5416 23.2997 34.5416 24.2169V38.0503C34.5416 38.9675 34.906 39.8471 35.5545 40.4957C36.2031 41.1442 37.0828 41.5086 38 41.5086C38.9172 41.5086 39.7968 41.1442 40.4454 40.4957C41.0939 39.8471 41.4583 38.9675 41.4583 38.0503V24.2169C41.4583 23.2997 41.0939 22.4201 40.4454 21.7715C39.7968 21.123 38.9172 20.7586 38 20.7586Z" fill="#FF7A19"/>
</svg>
