<svg width="61" height="61" viewBox="0 0 61 61" fill="none" xmlns="http://www.w3.org/2000/svg">
<g id="Group 2413">
<g id="Group 1672">
<path id="Rectangle 2773" d="M0 8C0 3.58172 3.58172 0 8 0H60.3072V61H7.99999C3.58172 61 0 57.4183 0 53V8Z" fill="#2DD051"/>
</g>
<path id="Vector" d="M38.7778 40H23.2222V27.7778H38.7778M35.4444 20V22.2222H26.5556V20H24.3333V22.2222H23.2222C21.9889 22.2222 21 23.2111 21 24.4444V40C21 40.5894 21.2341 41.1546 21.6509 41.5713C22.0676 41.9881 22.6329 42.2222 23.2222 42.2222H38.7778C39.3671 42.2222 39.9324 41.9881 40.3491 41.5713C40.7659 41.1546 41 40.5894 41 40V24.4444C41 23.8551 40.7659 23.2898 40.3491 22.8731C39.9324 22.4563 39.3671 22.2222 38.7778 22.2222H37.6667V20M36.5556 32.2222H31V37.7778H36.5556V32.2222Z" fill="white"/>
</g>
</svg>
