<svg enable-background="new 0 0 91 91" id="Layer_1" version="1.1" viewbox="0 0 91 91" xml:space="preserve" xmlns="http://www.w3.org/2000/svg" xmlns:xlink="http://www.w3.org/1999/xlink">
  <g>
    <rect class="icon" height="6.26" width="3.4" x="31.019" y="43.344"></rect>
    <rect class="icon" height="6.259" width="3.4" x="31.019" y="55.862"></rect>
    <rect class="icon" height="6.259" width="3.4" x="31.019" y="30.825"></rect>
    <rect class="icon" height="6.259" width="3.4" x="41.452" y="55.862"></rect>
    <rect class="icon" height="6.26" width="3.4" x="41.452" y="43.344"></rect>
    <rect class="icon" height="6.259" width="3.4" x="41.452" y="30.825"></rect>
    <rect class="icon" height="3.4" width="6.652" x="60.89" y="50.561"></rect>
    <rect class="icon" height="3.4" width="6.652" x="60.89" y="58.906"></rect>
    <path d="M56.331,72.315h12.191c3.711,0,6.732-3.021,6.732-6.733V40.709l-18.924-0.003V18.757H19.544v53.559h33.387 H56.331z M71.854,44.109v21.473c0,1.838-1.496,3.333-3.332,3.333H56.331v-24.81L71.854,44.109z M22.944,68.915V22.157h29.986 v18.548v28.209H22.944z" class="icon"></path>
  </g>
</svg>
