<svg width="32" height="26" viewBox="0 0 32 26" fill="none" xmlns="http://www.w3.org/2000/svg">
<path id="Vector" d="M3.2 25.6C2.32 25.6 1.5664 25.2864 0.939202 24.6592C0.312002 24.032 -0.00106395 23.2789 2.71647e-06 22.4V3.2C2.71647e-06 2.32 0.313603 1.5664 0.940803 0.939202C1.568 0.312002 2.32107 -0.00106395 3.2 2.71647e-06H12.8L16 3.2H28.8C29.68 3.2 30.4336 3.5136 31.0608 4.1408C31.688 4.768 32.0011 5.52107 32 6.4V22.4C32 23.28 31.6864 24.0336 31.0592 24.6608C30.432 25.288 29.6789 25.6011 28.8 25.6H3.2ZM3.2 22.4H28.8V6.4H14.68L11.48 3.2H3.2V22.4Z" class="icon" />
</svg>
