<svg viewbox="0 0 32 32" xmlns="http://www.w3.org/2000/svg">
  <g data-name="Layer 16" id="Layer_16">
    <path d="M16,2A14,14,0,1,0,30,16,14,14,0,0,0,16,2Zm0,26.13A12.13,12.13,0,1,1,28.13,16,12.14,12.14,0,0,1,16,28.13Z"></path>
    <path d="M15.34,21.33a1,1,0,0,0,.3.2,1,1,0,0,0,.36.07h0a1,1,0,0,0,.36-.07,1,1,0,0,0,.3-.2l4.67-4.67A.93.93,0,1,0,20,15.34l-3.08,3.07V8.53a.93.93,0,0,0-1.86,0v9.88L12,15.34a.93.93,0,0,0-1.32,1.32Z"></path>
    <path d="M21.6,19.73a.93.93,0,0,0-.93.94v1.86H11.33V20.67a.93.93,0,1,0-1.86,0v2.8a.93.93,0,0,0,.93.93H21.6a.93.93,0,0,0,.93-.93v-2.8A.93.93,0,0,0,21.6,19.73Z"></path>
  </g>
</svg>
