<svg width="18" height="21" viewBox="0 0 18 21" fill="none" xmlns="http://www.w3.org/2000/svg">
<path id="Vector" d="M1.96979 17.9727H3.34865L11.8434 8.82457L10.4645 7.33965L1.96979 16.4878V17.9727ZM16.0538 7.28662L11.868 2.83186L13.2469 1.34694C13.6244 0.940353 14.0883 0.737061 14.6385 0.737061C15.1887 0.737061 15.6523 0.940353 16.0292 1.34694L17.408 2.83186C17.7856 3.23844 17.9826 3.72917 17.999 4.30405C18.0154 4.87893 17.8348 5.3693 17.4573 5.77518L16.0538 7.28662ZM14.6257 8.85109L4.18581 20.0941H0V15.5863L10.4399 4.3433L14.6257 8.85109ZM11.1539 8.08211L10.4645 7.33965L11.8434 8.82457L11.1539 8.08211Z" fill="white"/>
</svg>
