<svg width="4" height="24" viewBox="0 0 4 24" fill="none" xmlns="http://www.w3.org/2000/svg">
<path id="Vector" d="M0 2C0 2.53043 0.211183 3.03914 0.587093 3.41421C0.963002 3.78929 1.47284 4 2.00446 4C2.53608 4 3.04592 3.78929 3.42183 3.41421C3.79774 3.03914 4.00892 2.53043 4.00892 2C4.00892 1.46957 3.79774 0.960859 3.42183 0.585787C3.04592 0.210714 2.53608 0 2.00446 0C1.47284 0 0.963002 0.210714 0.587093 0.585787C0.211183 0.960859 0 1.46957 0 2ZM0 12C0 12.5304 0.211183 13.0391 0.587093 13.4142C0.963002 13.7893 1.47284 14 2.00446 14C2.53608 14 3.04592 13.7893 3.42183 13.4142C3.79774 13.0391 4.00892 12.5304 4.00892 12C4.00892 11.4696 3.79774 10.9609 3.42183 10.5858C3.04592 10.2107 2.53608 10 2.00446 10C1.47284 10 0.963002 10.2107 0.587093 10.5858C0.211183 10.9609 0 11.4696 0 12ZM0 22C0 22.5304 0.211183 23.0391 0.587093 23.4142C0.963002 23.7893 1.47284 24 2.00446 24C2.53608 24 3.04592 23.7893 3.42183 23.4142C3.79774 23.0391 4.00892 22.5304 4.00892 22C4.00892 21.4696 3.79774 20.9609 3.42183 20.5858C3.04592 20.2107 2.53608 20 2.00446 20C1.47284 20 0.963002 20.2107 0.587093 20.5858C0.211183 20.9609 0 21.4696 0 22Z" class="icon"/>
</svg>
