<svg width="32" height="33" viewBox="0 0 32 33" fill="none" xmlns="http://www.w3.org/2000/svg">
<g id="clarityEmployeeGroupLine0" class="icon">
<path id="Vector" d="M16.4203 14.4802C15.2956 14.4684 14.1995 14.1241 13.27 13.4906C12.3406 12.8571 11.6194 11.9628 11.1971 10.9203C10.7749 9.87777 10.6705 8.73362 10.8972 7.63191C11.1239 6.5302 11.6714 5.52018 12.4709 4.72901C13.2704 3.93785 14.2861 3.4009 15.3901 3.18578C16.4942 2.97067 17.6372 3.087 18.6752 3.52012C19.7133 3.95325 20.6 4.68381 21.2237 5.61983C21.8474 6.55584 22.1802 7.65547 22.1803 8.78025C22.1697 10.2991 21.5575 11.7519 20.4779 12.8203C19.3983 13.8887 17.9392 14.4856 16.4203 14.4802ZM16.4203 5.08025C15.6912 5.09208 14.9818 5.31909 14.3813 5.73277C13.7808 6.14645 13.3159 6.72836 13.045 7.4054C12.7741 8.08245 12.7094 8.82443 12.8588 9.53816C13.0083 10.2519 13.3653 10.9055 13.8851 11.417C14.4049 11.9285 15.0642 12.275 15.7802 12.4129C16.4963 12.5509 17.2371 12.4742 17.9097 12.1925C18.5823 11.9108 19.1567 11.4366 19.5606 10.8295C19.9646 10.2224 20.1802 9.50947 20.1803 8.78025C20.1697 7.79182 19.7683 6.84776 19.0637 6.15443C18.3591 5.46111 17.4088 5.07491 16.4203 5.08025Z" />
<path id="Vector_2" d="M16.4198 14.4803C15.2951 14.4684 14.199 14.1241 13.2696 13.4906C12.3401 12.8571 11.6189 11.9628 11.1967 10.9203C10.7744 9.87777 10.6701 8.73362 10.8967 7.63191C11.1234 6.5302 11.671 5.52018 12.4705 4.72901C13.2699 3.93785 14.2856 3.4009 15.3897 3.18578C16.4937 2.97067 17.6367 3.087 18.6747 3.52012C19.7128 3.95325 20.5995 4.68381 21.2232 5.61983C21.8469 6.55584 22.1797 7.65547 22.1798 8.78025C22.1692 10.2991 21.5571 11.7519 20.4774 12.8203C19.3978 13.8887 17.9387 14.4856 16.4198 14.4803ZM16.4198 5.08025C15.6907 5.09208 14.9813 5.31909 14.3808 5.73277C13.7803 6.14645 13.3154 6.72836 13.0445 7.4054C12.7737 8.08245 12.7089 8.82443 12.8584 9.53816C13.0078 10.2519 13.3649 10.9055 13.8846 11.417C14.4044 11.9285 15.0637 12.275 15.7798 12.4129C16.4958 12.5509 17.2366 12.4742 17.9092 12.1925C18.5818 11.9108 19.1562 11.4366 19.5602 10.8295C19.9641 10.2224 20.1797 9.50947 20.1798 8.78025C20.1692 7.79182 19.7678 6.84776 19.0632 6.15444C18.3587 5.46111 17.4083 5.07491 16.4198 5.08025ZM19.9098 15.8203C15.4743 15.0484 10.9082 15.7509 6.9098 17.8202C6.62598 17.9778 6.39096 18.2105 6.23046 18.4927C6.06996 18.7748 5.99017 19.0958 5.9998 19.4202V22.9802C5.9998 23.2455 6.10516 23.4998 6.2927 23.6874C6.48023 23.8749 6.73459 23.9802 6.9998 23.9802C7.26502 23.9802 7.51937 23.8749 7.70691 23.6874C7.89445 23.4998 7.9998 23.2455 7.9998 22.9802V19.5502C11.7075 17.6899 15.9238 17.0996 19.9998 17.8703L19.9098 15.8203Z" />
<path id="Vector_3" d="M31 20.1699H24.3V18.6899C24.3 18.4247 24.1946 18.1704 24.0071 17.9828C23.8196 17.7953 23.5652 17.6899 23.3 17.6899C23.0348 17.6899 22.7804 17.7953 22.5929 17.9828C22.4054 18.1704 22.3 18.4247 22.3 18.6899V20.1699H15C14.7348 20.1699 14.4804 20.2753 14.2929 20.4628C14.1054 20.6504 14 20.9047 14 21.1699V31.1699C14 31.4352 14.1054 31.6895 14.2929 31.877C14.4804 32.0646 14.7348 32.1699 15 32.1699H31C31.2652 32.1699 31.5196 32.0646 31.7071 31.877C31.8946 31.6895 32 31.4352 32 31.1699V21.1699C32 20.9047 31.8946 20.6504 31.7071 20.4628C31.5196 20.2753 31.2652 20.1699 31 20.1699ZM30 30.1699H16V22.1699H22.3V22.5799C22.3 22.8452 22.4054 23.0995 22.5929 23.287C22.7804 23.4746 23.0348 23.5799 23.3 23.5799C23.5652 23.5799 23.8196 23.4746 24.0071 23.287C24.1946 23.0995 24.3 22.8452 24.3 22.5799V22.1699H30V30.1699Z" />
<path id="Vector_4" d="M19.81 25.59H25.77V26.99H19.81V25.59ZM8.84 10.41C6.07144 10.4564 3.3509 11.1408 0.89 12.41C0.622362 12.5514 0.398177 12.7629 0.241415 13.0218C0.0846523 13.2807 0.00120685 13.5774 0 13.88V16.98C0 17.2453 0.105357 17.4996 0.292893 17.6871C0.48043 17.8747 0.734783 17.98 1 17.98C1.26522 17.98 1.51957 17.8747 1.70711 17.6871C1.89464 17.4996 2 17.2453 2 16.98V14.08C4.3513 12.9097 6.95456 12.3361 9.58 12.41C9.2365 11.7833 8.98716 11.1094 8.84 10.41ZM31.11 12.4C28.9029 11.2422 26.4772 10.5609 23.99 10.4C23.8435 11.0982 23.5977 11.7717 23.26 12.4C25.6031 12.4561 27.9047 13.0298 30 14.08V16.98C30 17.2453 30.1054 17.4996 30.2929 17.6871C30.4804 17.8747 30.7348 17.98 31 17.98C31.2652 17.98 31.5196 17.8747 31.7071 17.6871C31.8946 17.4996 32 17.2453 32 16.98V13.88C32.0006 13.5757 31.918 13.2769 31.7612 13.0161C31.6043 12.7552 31.3791 12.5422 31.11 12.4ZM8.66 8.78004V8.11004C7.87662 8.0052 7.16385 7.60227 6.67007 6.98513C6.17629 6.36799 5.93955 5.58419 6.00913 4.79689C6.07872 4.0096 6.44926 3.27947 7.04362 2.7585C7.63798 2.23752 8.41037 1.96585 9.2 2.00004C10.0213 1.99855 10.8107 2.31791 11.4 2.89004C11.9199 2.46122 12.4909 2.09846 13.1 1.81004C12.4196 1.0277 11.5181 0.469878 10.5144 0.21011C9.51063 -0.0496588 8.45173 0.000815481 7.47724 0.35488C6.50275 0.708944 5.65842 1.34998 5.05553 2.19349C4.45264 3.03701 4.11949 4.0434 4.1 5.08004C4.12099 6.34879 4.6142 7.56416 5.4833 8.48874C6.3524 9.41331 7.53497 9.98069 8.8 10.08C8.71517 9.65167 8.66832 9.21665 8.66 8.78004ZM22.77 4.00762e-05C22.0828 0.000191363 21.4025 0.137346 20.7689 0.403485C20.1353 0.669623 19.5612 1.0594 19.08 1.55004C19.756 1.79501 20.3953 2.13147 20.98 2.55004C21.4468 2.22597 21.9929 2.03467 22.5599 1.99655C23.1269 1.95842 23.6937 2.0749 24.1997 2.33356C24.7057 2.59222 25.1321 2.98336 25.4333 3.46529C25.7345 3.94721 25.8992 4.50184 25.91 5.07004C25.9037 5.65368 25.7322 6.22359 25.4155 6.71382C25.0987 7.20404 24.6495 7.59452 24.12 7.84004C24.1602 8.1484 24.1803 8.45906 24.18 8.77004C24.1773 9.172 24.1439 9.57317 24.08 9.97004C25.1694 9.68997 26.1356 9.05761 26.8283 8.1714C27.521 7.28518 27.9013 6.19482 27.91 5.07004C27.8968 3.71734 27.3488 2.42484 26.3857 1.47488C25.4226 0.524912 24.1227 -0.00530855 22.77 4.00762e-05Z" />
</g>
</svg>
