<svg width="16" height="19" viewbox="0 0 16 19" fill="none" xmlns="http://www.w3.org/2000/svg">
  <path id="Vector" fill-rule="evenodd" clip-rule="evenodd" d="M16 5.14286V16C16 16.6062 15.7592 17.1876 15.3305 17.6162C14.9019 18.0449 14.3205 18.2857 13.7143 18.2857V17.1429C14.0174 17.1429 14.3081 17.0224 14.5224 16.8081C14.7367 16.5938 14.8571 16.3031 14.8571 16V5.14286H12.5714C12.1168 5.14286 11.6807 4.96225 11.3592 4.64075C11.0378 4.31926 10.8571 3.88323 10.8571 3.42857V1.14286H4.57143C4.26832 1.14286 3.97763 1.26327 3.76331 1.47759C3.54898 1.69192 3.42857 1.98261 3.42857 2.28571V12.5714H2.28571V2.28571C2.28571 1.67951 2.52653 1.09812 2.95518 0.66947C3.38384 0.240816 3.96522 0 4.57143 0L10.8571 0L16 5.14286ZM4.03086 13.5429H3.01029L2.06971 15.1874H2.02857L1.07771 13.5429H0.0137143L1.416 15.8091L0 18.1143H0.984L1.95886 16.4971H1.99886L2.97029 18.1143H4.008L2.57486 15.8377L4.03086 13.5429ZM5.12114 18.1131V15.0731H5.16457L6.25257 17.5406H6.84229L7.92343 15.072H7.96686V18.1131H8.784V13.5429H7.86971L6.56686 16.5097H6.53829L5.23429 13.5429H4.31314V18.1131H5.12114ZM10.504 17.3429H12.4423V18.1131H9.6V13.5429H10.504V17.3429Z" class="icon"></path>
</svg>
