<svg width="16" height="17" viewBox="0 0 16 17" fill="none" xmlns="http://www.w3.org/2000/svg">
<g id="Group">
<path id="Vector" opacity="0.2" d="M15.3043 5.56524H10.4348V0.695679L15.3043 5.56524Z" class="icon"/>
<path id="Vector_2" d="M1.3913 13.5652C1.3913 14.5217 2.01565 15.3043 2.78261 15.3043C2.95047 15.3006 3.11582 15.2627 3.2686 15.1931C3.42137 15.1234 3.55839 15.0234 3.6713 14.8991C3.79947 14.7686 3.9739 14.6938 4.15682 14.6909C4.33974 14.6881 4.51642 14.7574 4.6486 14.8838C4.78079 15.0103 4.85784 15.1838 4.86306 15.3666C4.86829 15.5495 4.80127 15.7271 4.67652 15.8609C4.4343 16.1216 4.14137 16.3302 3.81571 16.4737C3.49004 16.6172 3.13849 16.6928 2.78261 16.6957C1.24783 16.6957 0 15.2913 0 13.5652C0 11.8391 1.24783 10.4348 2.78261 10.4348C3.13849 10.4377 3.49004 10.5132 3.81571 10.6567C4.14137 10.8003 4.4343 11.0088 4.67652 11.2696C4.80127 11.4034 4.86829 11.5809 4.86306 11.7638C4.85784 11.9467 4.78079 12.1201 4.6486 12.2466C4.51642 12.3731 4.33974 12.4424 4.15682 12.4395C3.9739 12.4366 3.79947 12.3618 3.6713 12.2313C3.55839 12.107 3.42137 12.007 3.2686 11.9374C3.11582 11.8677 2.95047 11.8298 2.78261 11.8261C2.01565 11.8261 1.3913 12.6087 1.3913 13.5652ZM8.31304 12.8096C7.96522 12.7087 7.60522 12.6052 7.40435 12.4757C7.29565 12.4052 7.29739 12.3887 7.30696 12.3104C7.30848 12.2472 7.32505 12.1853 7.35529 12.1298C7.38554 12.0743 7.42859 12.0268 7.48087 11.9913C7.88087 11.72 8.81478 11.8409 9.20522 11.9426C9.38372 11.9903 9.57388 11.9652 9.73385 11.8728C9.89383 11.7803 10.0105 11.6281 10.0583 11.4496C10.106 11.2711 10.0809 11.0809 9.98841 10.9209C9.89595 10.761 9.74372 10.6443 9.56522 10.5965C9.38087 10.5487 7.73913 10.1426 6.70957 10.8365C6.49184 10.9826 6.30889 11.1748 6.17366 11.3995C6.03842 11.6241 5.9542 11.8757 5.92696 12.1365C5.75304 13.5174 7.11391 13.9113 7.92696 14.1461C8.97565 14.4496 9.06783 14.5739 9.03826 14.8061C9.0113 15.0157 8.9287 15.0965 8.85217 15.1478C8.45217 15.4139 7.53304 15.2835 7.15217 15.1791C6.97413 15.1294 6.78364 15.1525 6.6226 15.2432C6.46157 15.334 6.34318 15.485 6.29348 15.663C6.24378 15.8411 6.26684 16.0316 6.35759 16.1926C6.44834 16.3536 6.59935 16.472 6.77739 16.5217C7.20868 16.6347 7.65243 16.6931 8.09826 16.6957C8.60435 16.6957 9.16783 16.6087 9.61913 16.3078C9.84188 16.1598 10.0291 15.9643 10.1672 15.7353C10.3054 15.5063 10.3911 15.2495 10.4183 14.9835C10.6087 13.4783 9.17304 13.0583 8.31304 12.8096ZM15.5383 10.4757C15.4522 10.4448 15.3609 10.4313 15.2697 10.4358C15.1784 10.4403 15.0889 10.4627 15.0063 10.5018C14.9237 10.5409 14.8496 10.5958 14.7882 10.6636C14.7269 10.7313 14.6794 10.8105 14.6487 10.8965L13.5652 13.9313L12.4809 10.8965C12.4188 10.7227 12.2903 10.5807 12.1236 10.5017C11.9568 10.4227 11.7655 10.4132 11.5917 10.4752C11.418 10.5373 11.276 10.6658 11.1969 10.8325C11.1179 10.9993 11.1084 11.1906 11.1704 11.3643L12.9096 16.2339C12.9578 16.3691 13.0466 16.4861 13.1639 16.5688C13.2812 16.6515 13.4213 16.6959 13.5648 16.6959C13.7083 16.6959 13.8483 16.6515 13.9656 16.5688C14.0829 16.4861 14.1718 16.3691 14.22 16.2339L15.9591 11.3643C16.0211 11.1907 16.0115 10.9995 15.9326 10.8329C15.8537 10.6663 15.7119 10.5378 15.5383 10.4757ZM16 5.56522V7.65217C16 7.83667 15.9267 8.01361 15.7962 8.14407C15.6658 8.27453 15.4888 8.34783 15.3043 8.34783C15.1198 8.34783 14.9429 8.27453 14.8124 8.14407C14.682 8.01361 14.6087 7.83667 14.6087 7.65217V6.26087H10.4348C10.2503 6.26087 10.0733 6.18758 9.94288 6.05712C9.81242 5.92666 9.73913 5.74972 9.73913 5.56522V1.3913H2.08696V7.65217C2.08696 7.83667 2.01366 8.01361 1.8832 8.14407C1.75274 8.27453 1.5758 8.34783 1.3913 8.34783C1.20681 8.34783 1.02986 8.27453 0.899404 8.14407C0.768944 8.01361 0.695652 7.83667 0.695652 7.65217V1.3913C0.695652 1.02231 0.842236 0.668424 1.10316 0.407504C1.36408 0.146584 1.71796 2.15095e-07 2.08696 2.15095e-07H10.4348C10.5262 -7.16423e-05 10.6167 0.0178614 10.7011 0.0527749C10.7856 0.0876883 10.8623 0.138898 10.927 0.203478L15.7965 5.07304C15.8611 5.1377 15.9123 5.21444 15.9472 5.29889C15.9821 5.38334 16.0001 5.47384 16 5.56522ZM13.6252 4.86957L11.1304 2.37478V4.86957H13.6252Z" class="icon"/>
</g>
</svg>
