<svg width="12" height="15" viewBox="0 0 12 15" fill="none" xmlns="http://www.w3.org/2000/svg">
<g id="Group">
<path id="Vector" d="M1 13.1429V1.71429C1 1.52485 1.07526 1.34316 1.20921 1.20921C1.34316 1.07525 1.52485 1 1.71429 1H6.12286C6.50171 1.00008 6.86501 1.15064 7.13286 1.41857L10.5814 4.86714C10.8494 5.13499 10.9999 5.49829 11 5.87714V13.1429C11 13.3323 10.9247 13.514 10.7908 13.6479C10.6568 13.7819 10.4752 13.8571 10.2857 13.8571H1.71429C1.52485 13.8571 1.34316 13.7819 1.20921 13.6479C1.07526 13.514 1 13.3323 1 13.1429Z" stroke="#F5DF06" stroke-width="2" stroke-linejoin="round"/>
<path id="Vector_2" d="M6 1V5.28571C6 5.47515 6.07526 5.65684 6.20921 5.79079C6.34316 5.92475 6.52485 6 6.71429 6H11" stroke="#F5DF06" stroke-width="2" stroke-linejoin="round"/>
</g>
</svg>
