<svg width="17" height="17" viewBox="0 0 17 17" fill="none" xmlns="http://www.w3.org/2000/svg">
<path id="Vector" d="M10.2514 17H6.25137C6.05326 16.9974 5.864 16.9176 5.7239 16.7775C5.58381 16.6374 5.50396 16.4481 5.50137 16.25V8.5L0.15137 1.19C0.0668113 1.08007 0.0153194 0.948319 0.00292244 0.810181C-0.00947451 0.672044 0.0177364 0.533233 0.0813698 0.41C0.145118 0.287121 0.241218 0.183987 0.359295 0.111731C0.477372 0.039475 0.612942 0.000841201 0.75137 0H15.7514C15.8898 0.000841201 16.0254 0.039475 16.1434 0.111731C16.2615 0.183987 16.3576 0.287121 16.4214 0.41C16.485 0.533233 16.5122 0.672044 16.4998 0.810181C16.4874 0.948319 16.4359 1.08007 16.3514 1.19L11.0014 8.5V16.25C10.9988 16.4481 10.9189 16.6374 10.7788 16.7775C10.6387 16.9176 10.4495 16.9974 10.2514 17ZM7.00137 15.5H9.50137V8.25C9.50058 8.09066 9.55341 7.93568 9.65137 7.81L14.2514 1.5H2.25137L6.87137 7.81C6.96933 7.93568 7.02216 8.09066 7.02137 8.25L7.00137 15.5Z" class="icon"/>
</svg>
