<svg width="32" height="28" viewBox="0 0 32 28" fill="none" xmlns="http://www.w3.org/2000/svg">
<path id="Vector" d="M16.6528 0.227702C16.4635 0.0801383 16.2304 0 15.9904 0C15.7504 0 15.5173 0.0801383 15.328 0.227702L0 12.1797L1.32587 13.8565L3.2 12.3952V25.5994C3.20113 26.1649 3.42625 26.7069 3.82608 27.1067C4.22592 27.5065 4.76788 27.7316 5.33333 27.7328H26.6667C27.2321 27.7316 27.7741 27.5065 28.1739 27.1067C28.5738 26.7069 28.7989 26.1649 28.8 25.5994V12.4048L30.6741 13.8661L32 12.1893L16.6528 0.227702ZM18.1333 25.5994H13.8667V17.0661H18.1333V25.5994ZM20.2667 25.5994V17.0661C20.2661 16.5005 20.0412 15.9582 19.6412 15.5582C19.2413 15.1583 18.699 14.9333 18.1333 14.9328H13.8667C13.301 14.9333 12.7588 15.1583 12.3588 15.5582C11.9588 15.9582 11.7339 16.5005 11.7333 17.0661V25.5994H5.33333V10.7322L16 2.4229L26.6667 10.7429V25.5994H20.2667Z" class="icon" />
</svg>
