<svg width="22" height="22" viewBox="0 0 22 22" fill="none" xmlns="http://www.w3.org/2000/svg">
<path id="Vector" d="M20.8939 11.2245C20.6023 11.2245 20.3226 11.3331 20.1163 11.5264C19.9101 11.7196 19.7943 11.9818 19.7943 12.2551V18.4388C19.7943 18.7121 19.6784 18.9743 19.4722 19.1676C19.2659 19.3608 18.9862 19.4694 18.6946 19.4694H3.29904C3.00739 19.4694 2.72768 19.3608 2.52145 19.1676C2.31522 18.9743 2.19936 18.7121 2.19936 18.4388V4.01018C2.19936 3.73684 2.31522 3.4747 2.52145 3.28142C2.72768 3.08814 3.00739 2.97956 3.29904 2.97956H9.89713C10.1888 2.97956 10.4685 2.87098 10.6747 2.6777C10.881 2.48442 10.9968 2.22228 10.9968 1.94895C10.9968 1.67561 10.881 1.41347 10.6747 1.22019C10.4685 1.02691 10.1888 0.918329 9.89713 0.918329H3.29904C2.42408 0.918329 1.58496 1.24408 0.966268 1.82391C0.347577 2.40375 0 3.19017 0 4.01018V18.4388C0 19.2588 0.347577 20.0452 0.966268 20.6251C1.58496 21.2049 2.42408 21.5307 3.29904 21.5307H18.6946C19.5695 21.5307 20.4087 21.2049 21.0274 20.6251C21.646 20.0452 21.9936 19.2588 21.9936 18.4388V12.2551C21.9936 11.9818 21.8778 11.7196 21.6715 11.5264C21.4653 11.3331 21.1856 11.2245 20.8939 11.2245ZM4.39872 12.0078V16.3776C4.39872 16.6509 4.51458 16.9131 4.72081 17.1063C4.92704 17.2996 5.20675 17.4082 5.49841 17.4082H10.1611C10.3058 17.409 10.4492 17.383 10.5832 17.3317C10.7172 17.2804 10.8391 17.2048 10.9418 17.1093L18.5516 9.96714L21.6747 7.10203C21.7778 7.00622 21.8596 6.89223 21.9154 6.76664C21.9713 6.64105 22 6.50634 22 6.37029C22 6.23424 21.9713 6.09953 21.9154 5.97394C21.8596 5.84835 21.7778 5.73436 21.6747 5.63855L17.0121 1.21721C16.9098 1.12061 16.7882 1.04394 16.6542 0.991615C16.5202 0.939292 16.3765 0.912354 16.2313 0.912354C16.0861 0.912354 15.9424 0.939292 15.8084 0.991615C15.6744 1.04394 15.5527 1.12061 15.4505 1.21721L12.3494 4.13385L4.71763 11.276C4.61571 11.3723 4.53508 11.4865 4.48035 11.6121C4.42563 11.7377 4.39789 11.8721 4.39872 12.0078ZM16.2313 3.40211L19.3434 6.31876L17.7818 7.78223L14.6697 4.86559L16.2313 3.40211ZM6.59809 12.4303L13.1192 6.31876L16.2313 9.2354L9.71018 15.347H6.59809V12.4303Z" fill="white"/>
</svg>
