<svg width="32" height="27" viewBox="0 0 32 27" fill="none" xmlns="http://www.w3.org/2000/svg">
<path id="Vector" d="M29.0909 0H2.90909C2.13755 0 1.39761 0.306493 0.852053 0.852053C0.306493 1.39761 0 2.13755 0 2.90909V7.27273H2.90909V2.90909H29.0909V23.2727H18.9091V26.1818H29.0909C29.8624 26.1818 30.6024 25.8753 31.1479 25.3298C31.6935 24.7842 32 24.0443 32 23.2727V2.90909C32 2.13755 31.6935 1.39761 31.1479 0.852053C30.6024 0.306493 29.8624 0 29.0909 0ZM0 21.8182V26.1818H4.36364C4.36364 25.0245 3.9039 23.9146 3.08556 23.0963C2.26722 22.2779 1.15731 21.8182 0 21.8182ZM0 16V18.9091C0.955068 18.9091 1.90078 19.0972 2.78315 19.4627C3.66552 19.8282 4.46726 20.3639 5.14259 21.0392C5.81793 21.7146 6.35364 22.5163 6.71912 23.3987C7.08461 24.281 7.27273 25.2268 7.27273 26.1818H10.1818C10.1818 23.4814 9.10909 20.8916 7.19963 18.9822C5.29017 17.0727 2.70039 16 0 16ZM0 10.1818V13.0909C1.71912 13.0909 3.42141 13.4295 5.00967 14.0874C6.59794 14.7453 8.04107 15.7095 9.25667 16.9251C10.4723 18.1408 11.4365 19.5839 12.0944 21.1721C12.7523 22.7604 13.0909 24.4627 13.0909 26.1818H16C16 17.3382 8.82909 10.1818 0 10.1818ZM14.5455 11.7673V14.6764L19.6364 17.4545L24.7273 14.6764V11.7673L19.6364 14.5455L14.5455 11.7673ZM19.6364 4.36364L11.6364 8.72727L19.6364 13.0909L27.6364 8.72727L19.6364 4.36364Z" class="icon" />
</svg>
